<mxfile host="app.diagrams.net" modified="2024-03-26T12:50:22.721Z" agent="Mozilla/5.0 (Windows NT 10.0; Win64; x64) AppleWebKit/537.36 (KHTML, like Gecko) Chrome/123.0.0.0 Safari/537.36" version="22.1.17" etag="Jhn5RPVBG41WnOwb7dMF" type="github">
  <diagram name="第 1 页" id="JlInkwJ2qgxRMySoDmZG">
    <mxGraphModel>
      <root>
        <mxCell id="0" />
        <mxCell id="1" parent="0" />
      </root>
    </mxGraphModel>
  </diagram>
</mxfile>
